<?xml version="1.0" encoding="UTF-8" standalone="no"?>
<svg
   xmlns:dc="http://purl.org/dc/elements/1.1/"
   xmlns:cc="http://creativecommons.org/ns#"
   xmlns:rdf="http://www.w3.org/1999/02/22-rdf-syntax-ns#"
   xmlns:svg="http://www.w3.org/2000/svg"
   xmlns="http://www.w3.org/2000/svg"
   viewBox="0 0 279.89999 163.2"
   height="163.2"
   width="279.89999"
   version="1.1"
   id="svg3425">
  <metadata
     id="metadata3431">
    <rdf:RDF>
      <cc:Work
         rdf:about="">
        <dc:format>image/svg+xml</dc:format>
        <dc:type
           rdf:resource="http://purl.org/dc/dcmitype/StillImage" />
        <dc:title></dc:title>
      </cc:Work>
    </rdf:RDF>
  </metadata>
  <defs
     id="defs3429" />
  <path
     style="fill:#e20009"
     d="m 193.49999,163.02077 c -15.94038,-1.40489 -28.18275,-5.54674 -40.31044,-13.63787 -5.34739,-3.56757 -5.3569,-3.58178 -2.40129,-3.58733 4.85494,-0.009 9.04422,-1.72862 12.41374,-5.09524 1.0736,-1.07268 6.84133,-8.38079 12.81718,-16.24023 5.97585,-7.85945 11.08224,-14.3732 11.34753,-14.475 0.72235,-0.27719 1.90112,-0.22343 2.53461,0.11561 0.30903,0.16539 5.46391,6.74158 11.45528,14.61374 5.99136,7.87218 11.75936,15.16547 12.81778,16.20732 2.10874,2.07574 4.96205,3.66073 7.96364,4.42372 2.27983,0.57952 6.65768,0.5763 9.13104,-0.007 7.55485,-1.78084 12.93093,-8.73784 12.93093,-16.7335 0,-4.5132 -1.59656,-8.53626 -5.16058,-13.00374 -1.16342,-1.45834 -2.24976,-2.82028 -2.4141,-3.02653 -0.23839,-0.2992 3.52732,-0.375 18.62853,-0.375 17.89422,0 18.91755,0.0286 18.7483,0.525 -0.58611,1.71884 -4.59572,9.42608 -6.35812,12.22154 -4.49583,7.13109 -11.57778,15.13935 -17.74403,20.06488 -11.82639,9.4468 -25.96105,15.51058 -40.65,17.43887 -3.51726,0.46173 -13.06148,0.80743 -15.75,0.57048 z M 224.34116,97.559478 C 221.58631,94.144266 218.30587,90.10125 217.0513,88.575 l -2.28103,-2.775 32.60914,0 32.60914,0 -0.20101,2.859522 c -0.2251,3.202407 -1.08381,8.522442 -2.01761,12.499918 L 277.15,103.8 l -23.90001,-0.0155 -23.9,-0.0155 -5.00883,-6.209482 z M 218.37101,72.975 c 1.97635,-2.43375 5.19136,-6.3825 7.14447,-8.775 l 3.55113,-4.35 24.05465,-0.07678 24.05464,-0.07678 0.31655,1.17558 c 1.07476,3.991353 2.40754,12.402165 2.40754,15.19335 l 0,1.334634 -32.56116,0 -32.56116,0 z M 187.31659,53.052414 C 186.96822,52.883577 181.844,46.378962 175.92943,38.597718 170.01487,30.816474 164.2249,23.505 163.06283,22.35 c -3.38551,-3.364942 -7.28287,-4.9555 -12.31125,-5.024362 l -2.52874,-0.03463 2.45756,-1.803837 c 5.27403,-3.871122 12.05633,-7.5610777 18.51579,-10.0736359 13.40185,-5.21296281 28.79932,-6.6867748 43.59886,-4.1731867 7.639,1.2974255 14.23511,3.4923793 21.95494,7.3058326 13.15671,6.499172 23.44888,15.556508 31.68441,27.882984 2.58959,3.875958 7.025,12.147162 7.61246,14.195835 l 0.19356,0.675 -19.09838,0 -19.09838,0 1.53541,-1.875 c 4.87199,-5.949555 6.62578,-9.87735 6.61649,-14.818302 -0.0201,-10.663851 -8.82921,-18.401167 -19.57784,-17.195758 -4.33263,0.485885 -7.85922,2.17417 -10.83797,5.188454 -0.84278,0.852833 -6.45669,8.012057 -12.47536,15.909386 -6.53985,8.581191 -11.22477,14.465898 -11.64324,14.625 -0.87787,0.333762 -1.53506,0.310956 -2.34456,-0.08137 z"
     id="path3509" />
  <path
     style="fill:#181716"
     d="m 142.49999,115.61155 c -2.52172,-0.27058 -4.73562,-0.82084 -6.11519,-1.51993 -2.14595,-1.08743 -4.4469,-3.39861 -5.54404,-5.56867 -1.79439,-3.54918 -1.82982,-4.05029 -1.83556,-25.96158 L 129,62.67273 128.26363,61.93636 C 127.60471,61.27745 127.27521,61.2 125.13064,61.2 122.03345,61.2 121.8,60.92598 121.8,57.29059 c 0,-3.56641 0.13653,-3.71308 3.57963,-3.84559 2.37372,-0.0913 2.78634,-0.18777 3.17437,-0.74175 0.36493,-0.52102 0.446,-1.96058 0.446,-7.92 0,-8.96835 -0.23827,-8.48325 4.16676,-8.48325 4.48575,0 4.20277,-0.56899 4.30169,8.64959 0.0765,7.12508 0.11791,7.62616 0.66388,8.025 0.45038,0.32901 1.77789,0.42541 5.85825,0.42541 6.84258,0 6.60941,-0.14136 6.60941,4.00701 0,1.9901 -0.12686,3.19985 -0.36,3.43299 -0.25361,0.25361 -1.97261,0.36 -5.81676,0.36 -4.92524,0 -5.52575,0.0558 -6.165,0.57337 l -0.70823,0.57336 -0.0854,17.35164 c -0.0504,10.23923 0.037,18.36275 0.21312,19.81839 0.37177,3.0721 1.25552,5.17242 2.74115,6.51459 1.28252,1.15868 2.45565,1.55009 5.53113,1.84541 2.94908,0.28319 3.15,0.52364 3.15,3.76974 0,3.22167 -0.41195,3.8535 -2.5125,3.8535 -0.72187,0 -1.70062,0.0504 -2.175,0.1121 -0.47437,0.0617 -1.335,0.0614 -1.9125,-6e-4 z M 86.502468,115.07669 C 76.499658,113.16594 68.660386,106.74462 64.606459,97.14118 62.64067,92.48438 62.256925,90.28648 62.259685,83.7 c 0.0021,-5.16526 0.08463,-6.16368 0.70455,-8.52989 3.976407,-15.17783 16.509236,-24.37327 31.298711,-22.96411 4.967414,0.4733 8.833664,1.7994 12.669774,4.34567 6.07812,4.03443 10.19208,10.57771 11.74127,18.67456 0.64096,3.35002 0.91197,9.83822 0.43493,10.41301 C 118.77109,86.0463 116.02821,86.1 95.573265,86.1 c -17.608098,0 -23.239488,0.0862 -23.513268,0.36 -1.328979,1.32898 1.635918,9.72262 4.879023,13.81254 2.580288,3.25403 6.831639,5.97417 10.955271,7.0095 2.964864,0.74439 7.800222,0.46058 11.105705,-0.65187 3.027194,-1.01878 6.635864,-3.34232 9.947814,-6.40518 1.2638,-1.16874 2.46056,-2.12499 2.65946,-2.12499 0.19889,0 1.42613,1.03591 2.72718,2.30202 3.11486,3.03122 3.11633,3.2536 0.0405,6.09793 -4.43555,4.10176 -9.12286,6.74782 -14.422375,8.14166 -3.014447,0.79284 -10.337237,1.02972 -13.450157,0.43508 z M 109.03987,78.7945 c 1.25087,-0.91466 -0.30635,-7.80242 -2.54821,-11.27101 -3.31654,-5.13133 -8.116789,-7.60151 -14.841663,-7.63742 -5.502267,-0.0294 -9.723546,1.81083 -13.955541,6.0837 -2.93337,2.96171 -4.477425,5.59467 -5.402859,9.21307 -0.713433,2.7895 -0.718776,2.94713 -0.120171,3.54573 0.41805,0.41805 2.500632,0.47143 18.392661,0.47143 14.582383,0 18.024553,-0.0756 18.475783,-0.4055 z M 0.33335126,113.59019 C 0.0639569,113.26558 0.00210826,104.67885 0.07560855,77.80655 L 0.17231471,42.45 0.84146673,39.93376 C 3.21929,30.99236 10.007809,26.09455 20.012352,26.10227 c 4.586211,0.004 9.733995,1.00401 10.10213,1.96335 0.208152,0.54244 -0.913577,5.84954 -1.323524,6.26184 -0.168893,0.16986 -1.296758,0.0818 -2.908417,-0.22699 -6.699163,-1.2837 -12.290655,0.007 -14.752671,3.40591 C 9.391929,39.90553 8.4184953,44.43182 8.4053295,50.175 8.3964795,54.03545 6.6870904,53.7 26.367902,53.7 c 15.013389,0 16.786955,0.0496 16.949999,0.47454 0.100155,0.26099 0.183807,2.79224 0.185898,5.625 l 0.0038,5.15046 0.884157,-1.7434 c 2.046513,-4.03536 5.032725,-7.04372 8.858244,-8.92395 2.978235,-1.46379 5.609364,-2.14036 7.866696,-2.02287 l 1.733292,0.0902 0.08441,3.33072 c 0.116784,4.60803 0.07351,4.68729 -2.809476,5.14599 -8.155654,1.29763 -13.926532,8.04626 -15.583036,18.22329 -0.346011,2.12578 -0.439731,6.05278 -0.440682,18.465 -9e-4,11.8603 -0.09037,15.85417 -0.361206,16.125 -0.24033,0.24033 -1.566666,0.36 -3.989999,0.36 -2.423334,0 -3.74967,-0.11967 -3.99,-0.36 -0.27447,-0.27447 -0.36,-6.54667 -0.36,-26.4 l 0,-26.04 -13.182295,0 c -10.216393,0 -13.2369007,0.0844 -13.4249992,0.375 -0.1334877,0.20625 -0.3102051,12.0525 -0.3927051,26.325 l -0.15,25.95 -3.7810997,0.0836 c -2.9818016,0.066 -3.85602792,-0.007 -4.13554874,-0.34345 z"
     id="path3507" />
</svg>
